<?xml version="1.0" encoding="UTF-8"?> <svg xmlns="http://www.w3.org/2000/svg" xmlns:xlink="http://www.w3.org/1999/xlink" version="1.1" id="Слой_1" x="0px" y="0px" viewBox="0 0 278.9 94.7" style="enable-background:new 0 0 278.9 94.7;" xml:space="preserve"> <style type="text/css"> .st0{fill:#020202;} .st1{fill:#FC6320;} .st2{fill:#E47544;} .st3{fill:#CC7F5E;} </style> <g> <rect x="97.5" y="34.9" class="st0" width="12.7" height="3.1"></rect> <rect x="97.5" y="60.8" class="st0" width="12.7" height="3.1"></rect> <rect x="130.8" y="60.8" class="st0" width="12.7" height="3.1"></rect> <path d="M84,51.2c-5.7,0.6-11.3,0.7-16.9-0.5c-2.3-0.5-4.6-1.2-7.1-1.9c1.2-1.4,2.3-2.4,3.1-3.5c4-5.2,4.7-11,2.7-17.2 c-0.1-0.4-0.6-0.9-1-1c-0.3,0-0.8,0.5-1,0.9c-2.2,4.7-5.6,8.2-10.8,9.6c-3.1,0.8-6,2.1-8.8,3.9c-3.5,2.2-6.1,5.2-7.1,9.3 c-0.3,1.2,0,1.7,1.2,2.1c0.7,0.2,1.3,0.4,2.3,0.7c-2.4,1-3.8,2.6-4.9,4.5c-0.1,0.2-0.4,0.5-0.7,0.5c-1.5,0.3-3,0.8-4.7,0.3 c0.2-0.7,0.5-1.2,0.7-1.8c0.4-1.2,0.1-1.8-1.2-1.8c-2.1-0.1-4.1,0-6.1,0.9c-2.4,1-4.8,2.1-7.1,3.1c-2.8,1.2-5.6,2-8.6,1.4 c-2.4-0.5-4.7-1.5-7.1-2.3c-0.5-0.2-1.1-0.4-1.4,0.2c-0.1,0.3,0.1,1,0.4,1.3c2,1.7,4,3.5,6.1,5c4,2.9,8.5,4.2,13.4,2.9 c0,0,0.1,0.1,0.2,0.1c0,0.1,0.1,0.2,0,0.3c-0.7,3.8,0.2,7.4,1.6,10.9c1,2.6,2.5,5,2.8,7.9c0,0.4,0.6,0.8,0.9,1.2 c0.3-0.4,0.8-0.8,1-1.2c0.9-2.8,1.7-5.6,2.7-8.3c0.4-1.2,1-2.4,1.6-3.6c2.6,1.8,5,3.5,6.8,6c2.3,3.2,3.7,6.8,4.8,10.5 c0.1,0.5,0.6,0.9,0.9,1.3c0.4-0.3,1-0.5,1.3-1c1.6-2.6,3.3-5.2,4.7-8c3.1-6.2,4.5-12.8,3.7-19.8c-0.5-4-2.2-7.2-5.8-9.3 c-0.2-0.1-0.4-0.2-0.5-0.4c0-0.1,0.1-0.2,0.1-0.3c0.5,0.1,1,0.1,1.4,0.4c0.7,0.5,1.4,1.1,2.1,1.7c2.5,2.3,4.8,4.8,7.4,6.9 c3.4,2.7,7.3,3.8,11.6,2.5c1.7-0.5,3.4-1.1,4.9-2c4.7-2.5,8.3-6.3,11.4-10.6c0.3-0.4,0.3-1,0.4-1.4C85,51.4,84.5,51.1,84,51.2z M64.8,32.3c0.1,0.3,0.2,0.5,0.2,0.7c0.5,6-2,10.8-6.5,14.6c-0.2,0.2-0.5,0.4-0.8,0.3c-1.2-0.3-2.4-0.8-3.6-1.2 C62.5,39.4,61.5,39.3,64.8,32.3z M40.5,51.6c-0.4-0.1-1-0.2-1.7-0.4c0.5-2.4,1.6-4.3,3.2-5.9c2.8-2.7,6.1-4.5,9.9-5.6 c4.5-1.3,8.5-3.3,11.1-7.3c0.1-0.1,0.2-0.2,0.4-0.3c0.1,0.1,0.2,0.1,0.3,0.2c-0.6,1.5-1.2,3.1-2,4.5c-2,3.7-4.5,7-8.3,9 c-0.5,0.3-1.2,0.4-1.8,0.4c-4-0.4-7.4,0.8-10.1,3.8C41.2,50.4,40.9,51,40.5,51.6z M11.3,62.5c2.9-0.2,5.6-1.4,8.2-2.6 c1.7-0.8,3.4-1.6,5.2-2.2c1.1-0.4,2.3-0.6,3.5-0.7c-3.9,3.6-13.8,7.6-19.7,5.5C9.5,62.5,10.4,62.6,11.3,62.5z M20.2,65.7 c-4.4,1.4-8.5,0.6-12.3-2c3.6,0.7,7.3,0.5,10.7-0.8c3.3-1.2,6.5-2.8,9.9-4.3c-0.4,0.5-0.8,1-1.2,1.2c-2.7,1.2-5,2.8-6.5,5.3 C20.8,65.4,20.5,65.6,20.2,65.7z M24.9,81.7c-0.1,0-0.2,0-0.2,0c-2-3.8-3.5-7.7-3.3-12c0.2-3.5,3-7,6.6-8 C25.6,68.3,25.3,75,24.9,81.7z M26.3,80c-0.1,0.2-0.2,0.5-0.3,0.7c-0.1,0-0.2,0-0.3-0.1c0.1-1.6,0.1-3.3,0.3-4.9 c0.5-3.5,1-7.1,1.6-10.6c0.2-1,0.6-2.1,1.1-3.1c0.8-1.7,2.6-1.8,3.6-0.2c0.9,1.4,1.1,2.9,0.7,4.5c-0.3,1-0.7,1.9-1.2,2.7 C29.4,72.4,27.6,76.1,26.3,80z M43.9,88.5c-0.1,0.3-0.3,0.7-0.5,1.3c-0.6-1.6-1-2.8-1.5-4.1c-2-4.9-5-8.8-9.5-11.6 c-1.2-0.8-1.2-0.9-0.4-2.1c0.6-1,1.4-1.9,1.9-2.9c1.4-2.5,1.6-5.2,0.3-7.9c0-0.1-0.1-0.2-0.1-0.3c0,0,0-0.1,0-0.2 c0.1,0,0.2-0.1,0.2-0.1c1.3-0.6,2.1,0,2.9,1.1c3.7,5.4,6.7,11.1,7.4,17.8C45,82.6,44.8,85.6,43.9,88.5z M50.9,65.1 c0.5,7.3-1.3,14-4.8,20.2c-0.1,0.2-0.3,0.4-0.6,0.8c1.2-10.4-2.9-18.6-8.7-26.5c0.6-0.9,1.2-1.9,2-2.7c1.8-2,4.4-2.4,6.8-1.1 C49.1,57.9,50.6,61.1,50.9,65.1z M76.9,59.3c-2.3,1.9-4.8,3.3-7.7,4.3c-3.8,1.3-7.3,0.6-10.5-1.7c-1.1-0.8-2.1-1.7-3.1-2.6 c-2.9-2.8-5.5-6.1-9.3-8c1.8-0.2,3.6,0,5.4,0.5c2.7,0.7,4.8,2.3,6.9,4c4.2,3.4,9,4.4,14.1,2.6c2.5-0.9,4.8-2.1,7.2-3.1 c0.3-0.1,0.6-0.3,1-0.5c0.1,0.1,0.2,0.2,0.3,0.3C79.8,56.5,78.4,58,76.9,59.3z M80.1,54.2c-2.5,1.1-4.9,2.3-7.4,3.3 c-4.9,1.9-9.6,1-13.5-2.4c-4.3-3.7-9.1-5.2-14.6-4.7c-0.1,0-0.2-0.1-0.4-0.4c1-0.5,1.9-1.1,3-1.5c2.5-1,5-0.5,7.5,0.3 c3.5,1.1,7,2.4,10.6,3.4c4.5,1.2,9.2,1.5,13.9,1.2c0.7,0,1.5-0.1,2.2-0.1c0,0.1,0,0.2,0.1,0.3C81,53.7,80.5,54,80.1,54.2z"></path> <path class="st1" d="M29.7,2.7c-7.3,0-13.1,5.8-13.1,13.1c0,7.3,5.8,13.1,13.1,13.1c7.3,0,13.2-5.8,13.2-13.1 C42.8,8.6,36.9,2.7,29.7,2.7z M29.5,26.2c-5.6,0-10.2-4.8-10.2-10.4c0-5.7,4.8-10.5,10.5-10.4c5.8,0.1,10.4,4.7,10.3,10.5 C40,21.7,35.3,26.3,29.5,26.2z"></path> <path class="st2" d="M8.7,31.1c-3.8,0.1-6.6,3-6.5,6.7c0.1,3.6,3.1,6.5,6.7,6.4c3.6-0.1,6.5-3.1,6.4-6.7 C15.2,33.9,12.2,31,8.7,31.1z M8.7,42.3c-2.6,0-4.7-2.1-4.7-4.7c0-2.6,2-4.8,4.7-4.8c2.7,0,4.8,2.1,4.8,4.7 C13.5,40.2,11.4,42.3,8.7,42.3z"></path> <path class="st3" d="M28.4,40c-2.5,0-4.7,2.1-4.7,4.6c0,2.5,2.1,4.7,4.7,4.7c2.5,0,4.7-2.1,4.7-4.7C33.1,42.1,31,40,28.4,40z M28.3,47.6c-1.7,0-3-1.4-2.9-3.1c0-1.7,1.4-3,3.1-3c1.6,0,3,1.4,3,3C31.5,46.3,30,47.7,28.3,47.6z"></path> <path d="M204.9,47c-0.8-1-1-1.6-0.4-2.9c1.7-3.7,0-8.6-3.3-9.2c-0.2,0-0.4-0.1-0.5-0.1l-8.2,0c0,9.5,0,18.8,0,28.2 c0,0.2,0.2,0.6,0.5,0.8h6.8c0.9-0.1,1.7-0.3,2.5-0.6C208.1,61.2,209.3,52.3,204.9,47z M195.2,40.9c0-3.2,0-3.2,2.9-3.2 c3,0,4.2,1,4.2,3.5c-0.1,2.5-1,3.1-4.7,3.1C195.2,44.4,195.2,44.4,195.2,40.9z M202.6,59.7c-1.2,1.2-5.3,2-6.8,1.2 c-0.3-0.2-0.6-0.9-0.6-1.3c-0.1-1.8,0-3.6,0-5.4c0-1.7-0.1-3.5,0-5.2c0-0.5,0.5-1.3,1-1.4c3.4-0.9,6.3,0.3,7.7,3.1 C205.4,53.6,204.8,57.5,202.6,59.7z"></path> <path d="M274.5,53.1c3.6-2.9,4.7-8,3.1-12.4c-1.6-4.1-4.2-5.7-9.6-5.7c-0.5,0-1,0-1.4,0c-1.8,0-2.2,0.5-2.2,2.2 c0.1,8.3,0,16.5,0,24.8c0,0.7,0.1,1.3,0.1,2h2.5c0.3-0.3,0.3-0.9,0.3-2.1c0-1.7-0.1-3.3,0-5c0-0.8,0.3-2,0.8-2.2 c1.1-0.5,2.2-0.1,2.8,1.3c0.9,2.1,2.1,4,3,6.1c0.4,0.9,0.8,1.5,1.5,1.8h2.7c0,0,0,0,0.1,0c-1.4-2.7-2.7-5.4-4.1-8 C273.3,54.8,273.2,54.1,274.5,53.1z M267.2,51.3c0-4,0-8.2,0-12.3c0-0.3,0.5-0.9,0.8-0.9c2-0.2,3.9-0.2,5.5,1.5 c2,2.2,2.5,6.1,0.9,8.9C273.1,51.2,271.1,51.8,267.2,51.3z"></path> <rect x="97.5" y="34.9" class="st0" width="2.9" height="29"></rect> <rect x="97.5" y="47.9" class="st0" width="12.7" height="3.1"></rect> <rect x="130.8" y="34.9" class="st0" width="2.9" height="29"></rect> <g> <rect x="231.1" y="48.7" class="st0" width="11" height="3.2"></rect> <polygon class="st0" points="229.3,63.9 226.5,63.9 235.2,34.9 238,34.9 "></polygon> <polygon class="st0" points="243.8,63.9 246.7,63.9 238,34.9 235.1,34.9 "></polygon> </g> <g> <rect x="160.7" y="34.9" class="st0" width="2.9" height="29"></rect> <rect x="160.7" y="47.9" class="st0" width="12.7" height="3.1"></rect> <rect x="160.7" y="34.9" class="st0" width="12.7" height="3.1"></rect> </g> </g> </svg> 